<svg width="23" height="23" viewBox="0 0 23 23" fill="none" xmlns="http://www.w3.org/2000/svg">
<path d="M11.5 0C5.15104 0 0 5.15104 0 11.5C0 17.849 5.15104 23 11.5 23C17.849 23 23 17.849 23 11.5C23 5.15104 17.849 0 11.5 0ZM16.3635 9.65521L10.8052 15.2135C10.6375 15.3812 10.374 15.501 10.1104 15.501C9.84688 15.501 9.60729 15.4052 9.41562 15.2135L6.63646 12.4344C6.25313 12.051 6.25313 11.4281 6.63646 11.0448C7.01979 10.6615 7.64271 10.6615 8.02604 11.0448L10.1104 13.1292L14.974 8.26562C15.3573 7.88229 15.9802 7.88229 16.3635 8.26562C16.7469 8.64896 16.7469 9.27187 16.3635 9.65521Z" fill="#9CA7B4"/>
</svg>
