<svg width="26" height="26" viewBox="0 0 26 26" fill="none" xmlns="http://www.w3.org/2000/svg">
<path d="M20.404 25.4082H2.44675C1.09885 25.4082 0.00110214 24.3105 0.00110214 22.9626L0 5.00534C0 3.65634 1.09772 2.55859 2.44565 2.55859H14.1172C14.4765 2.55859 14.7675 2.84954 14.7675 3.20886C14.7675 3.56814 14.4776 3.86022 14.1172 3.86022H2.44678C1.81525 3.86022 1.30166 4.37381 1.30166 5.00534V22.9626C1.30166 23.5941 1.81525 24.1077 2.44678 24.1077H20.404C21.0355 24.1077 21.5502 23.5941 21.5502 22.9626L21.5491 11.291C21.5491 10.9317 21.8401 10.6407 22.1994 10.6407C22.5587 10.6407 22.8497 10.9317 22.8497 11.291V22.9614C22.8497 24.3104 21.753 25.4082 20.404 25.4082L20.404 25.4082Z" fill="#5DBDE6"/>
<path d="M11.414 19.2366C11.2475 19.2366 11.0811 19.1727 10.9533 19.046L6.35089 14.4436C6.09739 14.1901 6.09739 13.7779 6.35089 13.5233L18.7301 1.143C18.9836 0.889508 19.3958 0.889508 19.6515 1.143L24.2538 5.74538C24.3762 5.86771 24.4445 6.03303 24.4445 6.20497C24.4445 6.378 24.3762 6.54222 24.2538 6.66456L11.8735 19.046C11.7468 19.1728 11.5803 19.2367 11.4139 19.2367L11.414 19.2366ZM7.73053 13.9828L11.414 17.6662L22.8739 6.20626L19.1916 2.52396L7.73053 13.9828Z" fill="#5DBDE6"/>
<path d="M4.6678 21.3792C4.49807 21.3792 4.33165 21.3131 4.20821 21.1886C4.03628 21.0166 3.97456 20.7642 4.0484 20.5317L6.19097 13.7867C6.2593 13.5696 6.43674 13.4053 6.65716 13.3524C6.87757 13.2995 7.11014 13.3635 7.27105 13.5244L11.8734 18.1267C12.0343 18.2866 12.0994 18.5202 12.0454 18.7406C11.9914 18.9611 11.8271 19.1374 11.61 19.2057L4.86501 21.3483C4.80109 21.3681 4.73386 21.3792 4.66773 21.3792L4.6678 21.3792ZM7.10682 15.1996L5.66852 19.7284L10.1973 18.2901L7.10682 15.1996Z" fill="#5DBDE6"/>
<path d="M23.7932 6.85625C23.6212 6.85625 23.4559 6.78791 23.3325 6.66558L18.731 2.0632C18.6075 1.94086 18.5403 1.77555 18.5403 1.60361C18.5403 1.43057 18.6075 1.26526 18.7299 1.14402C19.4672 0.406686 20.4492 0 21.4907 0C22.5344 0 23.5153 0.406686 24.2527 1.14402C25.7747 2.66716 25.7747 5.14373 24.2527 6.66676C24.1303 6.788 23.9661 6.85633 23.7931 6.85633L23.7932 6.85625ZM20.1682 1.6608L23.7359 5.22741C24.3255 4.22887 24.1911 2.91954 23.3347 2.06314C22.507 1.23763 21.1481 1.08112 20.1682 1.66085L20.1682 1.6608Z" fill="#5DBDE6"/>
</svg>
