<svg width="6" height="21" viewBox="0 0 6 21" fill="none" xmlns="http://www.w3.org/2000/svg">
<g clip-path="url(#clip0)">
<path d="M2.625 5.06897C4.07475 5.06897 5.25 3.93424 5.25 2.53448C5.25 1.13473 4.07475 0 2.625 0C1.17525 0 0 1.13473 0 2.53448C0 3.93424 1.17525 5.06897 2.625 5.06897Z" fill="#5DBDE6"/>
<path d="M2.625 13.0345C4.07475 13.0345 5.25 11.8998 5.25 10.5001C5.25 9.1003 4.07475 7.96558 2.625 7.96558C1.17525 7.96558 0 9.1003 0 10.5001C0 11.8998 1.17525 13.0345 2.625 13.0345Z" fill="#5DBDE6"/>
<path d="M2.625 20.9999C4.07475 20.9999 5.25 19.8651 5.25 18.4654C5.25 17.0656 4.07475 15.9309 2.625 15.9309C1.17525 15.9309 0 17.0656 0 18.4654C0 19.8651 1.17525 20.9999 2.625 20.9999Z" fill="#5DBDE6"/>
</g>
<defs>
<clipPath id="clip0">
<rect width="5.25" height="21" fill="white"/>
</clipPath>
</defs>
</svg>
