<svg width="41" height="41" viewBox="0 0 41 41" fill="none" xmlns="http://www.w3.org/2000/svg">
<path d="M20.444 40.888C9.15209 40.888 0 31.7359 0 20.444C0 9.15209 9.15209 0 20.444 0C31.7359 0 40.888 9.15209 40.888 20.444C40.888 31.7359 31.7359 40.888 20.444 40.888Z" fill="#5DBDE6"/>
<path d="M20.9099 10.4218C20.6464 10.1556 20.2178 10.1556 19.9543 10.4218L11.7978 18.6526C11.1536 19.2968 12.1172 20.2604 12.7588 19.6162L19.2806 13.0864C19.5468 12.8202 19.7625 12.9134 19.7625 13.2781V29.7185C19.7625 30.0938 20.0659 30.3946 20.4439 30.3946C20.8193 30.3946 21.1254 30.0858 21.1254 29.7185V13.2781C21.1254 12.9054 21.341 12.8202 21.6072 13.0864L28.1291 19.6162C28.7706 20.2604 29.7342 19.2968 29.0901 18.6526L20.9099 10.4218Z" fill="white" stroke="white" stroke-width="0.773585"/>
</svg>
