<svg width="23" height="23" viewBox="0 0 23 23" fill="none" xmlns="http://www.w3.org/2000/svg">
<circle cx="11.5" cy="11.5" r="11.5" fill="#5DBDE6"/>
<path d="M11.248 6.41C11.8733 6.41 12.41 6.51733 12.858 6.732C13.3153 6.94667 13.656 7.236 13.88 7.6C14.1133 7.964 14.23 8.36533 14.23 8.804C14.23 9.37333 14.0667 9.84933 13.74 10.232C13.4133 10.6053 12.9653 10.8667 12.396 11.016C13.0213 11.072 13.5347 11.296 13.936 11.688C14.3373 12.08 14.538 12.6213 14.538 13.312C14.538 13.8533 14.398 14.3433 14.118 14.782C13.8473 15.2207 13.4553 15.5707 12.942 15.832C12.4287 16.084 11.822 16.21 11.122 16.21C9.834 16.21 8.81667 15.7573 8.07 14.852L9.064 13.9C9.38133 14.2173 9.694 14.4507 10.002 14.6C10.31 14.74 10.6507 14.81 11.024 14.81C11.528 14.81 11.9293 14.67 12.228 14.39C12.536 14.1007 12.69 13.7133 12.69 13.228C12.69 12.6867 12.5453 12.2993 12.256 12.066C11.976 11.8327 11.556 11.716 10.996 11.716H10.254L10.464 10.442H10.968C11.4253 10.442 11.7893 10.316 12.06 10.064C12.34 9.812 12.48 9.462 12.48 9.014C12.48 8.63133 12.354 8.33267 12.102 8.118C11.85 7.894 11.514 7.782 11.094 7.782C10.73 7.782 10.3987 7.852 10.1 7.992C9.80133 8.12267 9.50267 8.328 9.204 8.608L8.294 7.614C9.14333 6.81133 10.128 6.41 11.248 6.41Z" fill="white"/>
</svg>
