<?xml version="1.0" encoding="utf-8"?>
<!-- Generator: Adobe Illustrator 23.0.0, SVG Export Plug-In . SVG Version: 6.00 Build 0)  -->
<svg version="1.1" id="Ebene_1" xmlns="http://www.w3.org/2000/svg" xmlns:xlink="http://www.w3.org/1999/xlink" x="0px" y="0px"
	 viewBox="0 0 16 16" style="enable-background:new 0 0 16 16;" xml:space="preserve">
<style type="text/css">
	.st0{fill:#FFFFFF;}
</style>
<title>Shape</title>
<desc>Created with Sketch.</desc>
<g id="Mobile">
	<g id="Chat-texting--v2" transform="translate(-330.000000, -488.000000)">
		<g id="Group-5" transform="translate(0.000000, 467.000000)">
			<g id="Group-6" transform="translate(20.000000, 8.000000)">
				<g id="Group" transform="translate(299.000000, 0.000000)">
					<path id="Shape" class="st0" d="M24.6,13.1l-12.7,4.6c-0.5,0.2-0.8,0.6-0.8,1.1c0,0.5,0.2,1,0.6,1.2l5.4,3l3,5.4
						c0.2,0.4,0.6,0.6,1.1,0.6h0.1c0.5,0,0.9-0.4,1.1-0.8l4.6-12.7c0.2-0.7,0.1-1.4-0.4-1.9S25.2,12.9,24.6,13.1L24.6,13.1z
						 M25.4,14.5c0.1,0.1,0.1,0.2,0.1,0.4L21,27.2l-2.6-4.7L22,19c0.3-0.3,0.3-0.7,0-1s-0.7-0.3-1,0l-3.6,3.6l-4.7-2.6L25,14.5
						C25.2,14.4,25.3,14.4,25.4,14.5L25.4,14.5z"/>
				</g>
			</g>
		</g>
	</g>
</g>
</svg>
