<?xml version="1.0" encoding="utf-8"?>
<!-- Generator: Adobe Illustrator 22.0.1, SVG Export Plug-In . SVG Version: 6.00 Build 0)  -->
<svg version="1.1" id="Ebene_1" xmlns="http://www.w3.org/2000/svg" xmlns:xlink="http://www.w3.org/1999/xlink" x="0px" y="0px"
	 viewBox="0 0 164.5 121" style="enable-background:new 0 0 164.5 121;" xml:space="preserve">
<style type="text/css">
	.st0{fill:#EA7D5B;}
	.st1{fill:#FFFFFF;}
</style>
<path class="st0" d="M161,21.3c0-9.8-7.9-17.7-17.7-17.7H21.1c-9.8,0-17.7,7.9-17.7,17.7v77.8c0,9.8,7.9,17.7,17.7,17.7h122.2
	c9.8,0,17.7-7.9,17.7-17.7L161,21.3L161,21.3z"/>
<g>
	<circle class="st1" cx="82.2" cy="38.6" r="19.3"/>
	<path class="st1" d="M112.5,99.8H52V82c0-10.6,8.6-19.3,19.3-19.3h21.9c10.6,0,19.3,8.6,19.3,19.3V99.8z"/>
	<polygon class="st0" points="97.7,60.6 82.2,76.1 66.8,60.6 	"/>
</g>
</svg>
