<?xml version="1.0" encoding="utf-8"?>
<!-- Generator: Adobe Illustrator 22.0.1, SVG Export Plug-In . SVG Version: 6.00 Build 0)  -->
<svg version="1.1" id="Ebene_1" xmlns="http://www.w3.org/2000/svg" xmlns:xlink="http://www.w3.org/1999/xlink" x="0px" y="0px"
	 viewBox="0 0 164.5 121" style="enable-background:new 0 0 164.5 121;" xml:space="preserve">
<style type="text/css">
	.st0{fill:#EA7D5B;}
	.st1{fill:#FFFFFF;}
</style>
<path class="st0" d="M161.3,21.3c0-9.8-7.9-17.7-17.7-17.7H21.4c-9.8,0-17.7,7.9-17.7,17.7v77.8c0,9.8,7.9,17.7,17.7,17.7h122.2
	c9.8,0,17.7-7.9,17.7-17.7L161.3,21.3L161.3,21.3z"/>
<g>
	<g id="XMLID_1_">
		<path id="XMLID_3_" class="st1" d="M117.7,19.6c1,0.7,1.5,1.6,1.2,3l-11.8,70.2c-0.1,0.9-0.6,1.6-1.5,2.1
			c-0.4,0.3-0.9,0.3-1.5,0.3c-0.3,0-0.7-0.1-1-0.3l-20.6-8.4l-11,13.6c-0.6,0.7-1.3,1-2.2,1c-0.4,0-0.7,0-1-0.1
			c-0.6-0.1-1-0.6-1.3-1c-0.3-0.4-0.6-1-0.6-1.6V82.3l39.5-48.5L57,76.2l-18-7.5c-1.2-0.4-1.8-1.2-1.8-2.5c0-1.2,0.4-2.1,1.5-2.7
			l76.2-44c0.4-0.3,0.9-0.4,1.5-0.4C116.7,19.2,117.3,19.3,117.7,19.6z"/>
	</g>
</g>
</svg>
